<svg id="Layer_1" data-name="Layer 1" xmlns="http://www.w3.org/2000/svg" xmlns:xlink="http://www.w3.org/1999/xlink" viewBox="0 0 1366 540"><defs><style>.cls-1{fill:url(#linear-gradient);}</style><linearGradient id="linear-gradient" x1="1.57" y1="769.16" x2="0.84" y2="768.3" gradientTransform="matrix(1367, 0, 0, -540.53, -1079, 415750.39)" gradientUnits="userSpaceOnUse"><stop offset="0" stop-color="#f3515d"/><stop offset="0.54" stop-color="#c471ed"/><stop offset="1" stop-color="#27c2e7"/></linearGradient></defs><path id="Subtraction_3" data-name="Subtraction 3" class="cls-1" d="M236.35,523.32a393.26,393.26,0,0,1-60.3-8.27C122.14,503.3,69.92,483,21.67,456.31c-26.84-14.84-36.21-26.45-36.34-53-.14-26.14-.15-32.27-.11-58.4.08-52.27.37-104.54.37-156.8V-.24h1381V348.54c-23.79-2.77-46.52-4.85-69.5-6.38-30.78-2.05-62.39-3.08-93.94-3.08-154.64,0-320.3,11.07-466.07,66.47C580.45,465.08,407.11,533.69,236.35,523.32Z"/></svg>