<svg id="Layer_1" data-name="Layer 1" xmlns="http://www.w3.org/2000/svg" xmlns:xlink="http://www.w3.org/1999/xlink" viewBox="0 0 792 417.98"><defs><style>.cls-1{fill:url(#linear-gradient);}</style><linearGradient id="linear-gradient" x1="1.7" y1="612.67" x2="0.72" y2="611.5" gradientTransform="matrix(1367, 0, 0, -228.54, -1366, 140092.96)" gradientUnits="userSpaceOnUse"><stop offset="0" stop-color="#f3515d"/><stop offset="0.54" stop-color="#c471ed"/><stop offset="1" stop-color="#27c2e7"/></linearGradient></defs><path id="Subtraction_13" data-name="Subtraction 13" class="cls-1" d="M77.3,418c-5.58,0-11.23-.05-16.8-.17s-11.46-.29-17.2-.52-11.8-.54-17.77-.89S13.28,415.6,7,415.11c-2.68-.22-5.33-.47-7.86-.78V.19H792.82V378.32c-13.81-.57-27-1-40.35-1.32-17.87-.43-36.22-.64-54.54-.64-15.92,0-32.38.16-48.92.48-18.24.34-37.15.89-56.22,1.62-20.72.8-42.22,1.84-63.89,3.09-23.32,1.34-47.52,3-71.91,4.84-38.72,3-76.42,6.2-115.23,9.91-33.77,3.22-63.59,6.34-89.89,9.08h-.05c-35.08,3.67-65.38,6.83-93.47,9.06-14.81,1.18-28.2,2-40.94,2.61C103.54,417.68,90.42,418,77.3,418Z"/></svg>