<svg id="Layer_1" data-name="Layer 1" xmlns="http://www.w3.org/2000/svg" xmlns:xlink="http://www.w3.org/1999/xlink" viewBox="0 0 792 383.51"><defs><style>.cls-1{fill:url(#linear-gradient);}</style><linearGradient id="linear-gradient" x1="1.48" y1="612.97" x2="0.97" y2="612.37" gradientTransform="matrix(1367, 0, 0, -540.53, -1366, 331348.94)" gradientUnits="userSpaceOnUse"><stop offset="0" stop-color="#f3515d"/><stop offset="0.54" stop-color="#c471ed"/><stop offset="1" stop-color="#27c2e7"/></linearGradient></defs><path id="Subtraction_3" data-name="Subtraction 3" class="cls-1" d="M78,383.51c-5.57,0-11.22-.16-16.78-.48s-11.45-.81-17.19-1.46-11.78-1.51-17.74-2.51-12.24-2.24-18.47-3.62A78.72,78.72,0,0,1,0,373.28V0H792.86V272.3c-13.8-1.61-27-2.82-40.31-3.71-17.86-1.18-36.19-1.79-54.49-1.79-15.9,0-32.35.45-48.87,1.34-18.23,1-37.12,2.51-56.17,4.56-20.7,2.23-42.17,5.14-63.82,8.64-23.3,3.77-47.47,8.34-71.84,13.58-38.69,8.31-76.34,17.4-115.12,27.79-33.74,9-63.52,17.76-89.8,25.47h-.05c-35,10.28-65.32,19.15-93.37,25.4-14.8,3.3-28.18,5.69-40.91,7.31A315.71,315.71,0,0,1,78,383.51Z"/></svg>