<svg id="Layer_1" data-name="Layer 1" xmlns="http://www.w3.org/2000/svg" viewBox="0 0 792 194.88"><defs><style>.cls-1{fill:#413b45;opacity:0.05;}</style></defs><path id="Subtraction_9" data-name="Subtraction 9" class="cls-1" d="M792,194.88H0V44.68c7.32.93,14.83,1.83,22.32,2.68,18,2.06,36.62,3.91,55.27,5.51,20.42,1.75,41.53,3.25,62.76,4.46,23,1.31,46.73,2.31,70.63,3,25.62.72,52.14,1.09,78.84,1.09,27.6,0,56.18-.39,84.95-1.17,32-.86,63.22-2.2,92.77-4,26-1.56,50.75-3.45,75.52-5.77,20.17-1.88,40.17-4,61.12-6.58,18.34-2.22,34.91-4.44,49.53-6.39h.11c18.73-2.51,34.9-4.67,49.9-6.23a402.2,402.2,0,0,1,41.95-2.51c8,0,15.54.34,23,1A231.11,231.11,0,0,1,792,33.15V194.88Z"/><path id="Subtraction_10" data-name="Subtraction 10" class="cls-1" d="M792,194.88H0V50.06c10.59.76,21.36,1.45,32,2,22.94,1.31,46.7,2.32,70.62,3,25.61.73,52.13,1.09,78.85,1.09,27.62,0,56.2-.39,85-1.16,63.26-1.7,122.49-5.65,181.06-12.08,50.57-5.55,92-12,128.65-17.63h0c49.71-7.7,89-13.77,126.45-13.77a297.9,297.9,0,0,1,44,3.13c7.42,1.11,14.93,2.53,22.32,4.24,7.55,1.75,15.29,3.87,23,6.3V194.88Z"/></svg>