<svg id="Group_2" data-name="Group 2" xmlns="http://www.w3.org/2000/svg" width="56.213" height="55.843" viewBox="0 0 56.213 55.843">
  <g id="Group_1" data-name="Group 1">
    <path id="Path_2" data-name="Path 2" d="M63.127,15.819H54.621v-3.7a1.849,1.849,0,1,0-3.7,0v3.7H25.036v-3.7a1.849,1.849,0,1,0-3.7,0v3.7H12.832a2.967,2.967,0,0,0-2.959,2.959V63.157a2.967,2.967,0,0,0,2.959,2.959h50.3a2.967,2.967,0,0,0,2.959-2.959V18.778A2.967,2.967,0,0,0,63.127,15.819Zm-49.556,3.7h7.766v2.219a1.849,1.849,0,1,0,3.7,0V19.518H50.923v2.219a1.849,1.849,0,1,0,3.7,0V19.518h7.766v7.035H23.926a1.11,1.11,0,0,0,0,2.219H62.388v24.09L61.2,51.677a.555.555,0,0,0-.785.785l1.969,1.967V58L58.494,54.1a.555.555,0,1,0-.785.785l4.679,4.677v2.853h-.714l-4.447-4.448a.555.555,0,1,0-.785.785L60.1,62.417H56.538l-1.895-1.9a.555.555,0,1,0-.785.785l1.111,1.111h-41.4Z" transform="translate(-9.873 -10.272)" fill="rgba(255,255,255,0.4)"/>
    <path id="Path_3" data-name="Path 3" d="M25.862,43.057H23.643a1.11,1.11,0,1,0,0,2.219h2.219a1.11,1.11,0,0,0,0-2.219Z" transform="translate(-16.246 -26.777)" fill="rgba(255,255,255,0.4)"/>
  </g>
  <path id="Path_4" data-name="Path 4" d="M65.406,65.078l-7.139-1.9-4.012-6.206a1.11,1.11,0,0,0-1.864,0l-4.011,6.206-7.141,1.9a1.109,1.109,0,0,0-.576,1.772l4.662,5.732-.4,7.377a1.109,1.109,0,0,0,1.507,1.1l6.893-2.663,6.893,2.663a1.109,1.109,0,0,0,1.507-1.1l-.4-7.377,4.662-5.732a1.109,1.109,0,0,0-.577-1.772Zm-6.078,6.437a1.115,1.115,0,0,0-.247.76l.332,6.091-5.692-2.2a1.107,1.107,0,0,0-.8,0l-5.692,2.2.332-6.091a1.114,1.114,0,0,0-.247-.76l-3.849-4.733,5.9-1.566a1.118,1.118,0,0,0,.648-.47l3.312-5.124,3.313,5.124a1.113,1.113,0,0,0,.647.469l5.9,1.567Z" transform="translate(-25.248 -33.528)" fill="rgba(255,193,7,0.75)"/>
</svg>
