<svg xmlns="http://www.w3.org/2000/svg" width="368.085" height="55.843" viewBox="0 0 368.085 55.843">
  <g id="Group_4" data-name="Group 4" transform="translate(-162 -9)">
    <g id="Group_2" data-name="Group 2" transform="translate(162 9)">
      <g id="Group_1" data-name="Group 1">
        <path id="Path_2" data-name="Path 2" d="M63.127,15.819H54.621v-3.7a1.849,1.849,0,1,0-3.7,0v3.7H25.036v-3.7a1.849,1.849,0,1,0-3.7,0v3.7H12.832a2.967,2.967,0,0,0-2.959,2.959V63.157a2.967,2.967,0,0,0,2.959,2.959h50.3a2.967,2.967,0,0,0,2.959-2.959V18.778A2.967,2.967,0,0,0,63.127,15.819Zm-49.556,3.7h7.766v2.219a1.849,1.849,0,1,0,3.7,0V19.518H50.923v2.219a1.849,1.849,0,1,0,3.7,0V19.518h7.766v7.035H23.926a1.11,1.11,0,0,0,0,2.219H62.388v24.09L61.2,51.677a.555.555,0,0,0-.785.785l1.969,1.967V58L58.494,54.1a.555.555,0,1,0-.785.785l4.679,4.677v2.853h-.714l-4.447-4.448a.555.555,0,1,0-.785.785L60.1,62.417H56.538l-1.895-1.9a.555.555,0,1,0-.785.785l1.111,1.111h-41.4Z" transform="translate(-9.873 -10.272)" fill="#403b44"/>
        <path id="Path_3" data-name="Path 3" d="M25.862,43.057H23.643a1.11,1.11,0,1,0,0,2.219h2.219a1.11,1.11,0,0,0,0-2.219Z" transform="translate(-16.246 -26.777)" fill="#403b44"/>
      </g>
      <path id="Path_4" data-name="Path 4" d="M65.406,65.078l-7.139-1.9-4.012-6.206a1.11,1.11,0,0,0-1.864,0l-4.011,6.206-7.141,1.9a1.109,1.109,0,0,0-.576,1.772l4.662,5.732-.4,7.377a1.109,1.109,0,0,0,1.507,1.1l6.893-2.663,6.893,2.663a1.109,1.109,0,0,0,1.507-1.1l-.4-7.377,4.662-5.732a1.109,1.109,0,0,0-.577-1.772Zm-6.078,6.437a1.115,1.115,0,0,0-.247.76l.332,6.091-5.692-2.2a1.107,1.107,0,0,0-.8,0l-5.692,2.2.332-6.091a1.114,1.114,0,0,0-.247-.76l-3.849-4.733,5.9-1.566a1.118,1.118,0,0,0,.648-.47l3.312-5.124,3.313,5.124a1.113,1.113,0,0,0,.647.469l5.9,1.567Z" transform="translate(-25.248 -33.528)" fill="#ffc107"/>
    </g>
    <g id="Group_3" data-name="Group 3" transform="translate(237.354 21.838)">
      <path id="Path_5" data-name="Path 5" d="M160.333,53.346v5.232h5.939v3.488h-5.939V72.573a3.791,3.791,0,0,0,.374,1.931q.374.6,1.786.6a8.49,8.49,0,0,0,3.032-.622l1.246,3.239a14.327,14.327,0,0,1-6.541,1.62q-3.343,0-4.527-1.433a6.409,6.409,0,0,1-1.184-4.173V62.066H152.65l-.457-2.533a6.926,6.926,0,0,1,2.741-1.577q.5-3.4,2.367-4.61Z" transform="translate(-152.193 -49.317)" fill="#403b44"/>
      <path id="Path_6" data-name="Path 6" d="M184.948,81.855q-4.921,0-7.289-2.617t-2.366-7.911q0-5.295,2.637-8.1t7.578-2.8q4.942,0,7.331,2.491t2.387,7.787q0,5.295-2.678,8.223T184.948,81.855Zm-3.675-10.881q0,6.645,3.986,6.645a3.33,3.33,0,0,0,3.011-1.516,9.523,9.523,0,0,0,.976-4.963q0-6.478-4.071-6.478a3.293,3.293,0,0,0-2.948,1.432Q181.272,67.527,181.273,70.974Z" transform="translate(-159.304 -51.497)" fill="#403b44"/>
      <path id="Path_7" data-name="Path 7" d="M217.95,48.066a20.354,20.354,0,0,1,4.527-.541q2.158,0,3.7.125V72.567a8.46,8.46,0,0,1,2.284.707v3.28a13.323,13.323,0,0,1-6.312,1.33,2.373,2.373,0,0,1-.811-.748A2.079,2.079,0,0,1,220.9,76.1a7.938,7.938,0,0,1-2.367,1.267,8.5,8.5,0,0,1-2.865.519q-4.485,0-6.5-2.43T207.152,67.5q0-6.271,3.073-8.8a10.054,10.054,0,0,1,6.645-2.242,15.061,15.061,0,0,1,3.489.415V52.758a6.161,6.161,0,0,1-2.825-1.5Zm-1.413,25.582a5.253,5.253,0,0,0,3.821-1.412V61.106a15.215,15.215,0,0,0-3.614-.415,2.876,2.876,0,0,0-2.761,1.682,11.512,11.512,0,0,0-.851,5.024,10.211,10.211,0,0,0,.83,4.8A2.763,2.763,0,0,0,216.537,73.647Z" transform="translate(-169.112 -47.525)" fill="#403b44"/>
      <path id="Path_8" data-name="Path 8" d="M241.189,63.831q0-.624.042-1.329a17.27,17.27,0,0,1,8.306-2.076q4.443,0,6.375,1.681t1.931,5.586v8.846a9.36,9.36,0,0,1,2.284.707v3.612a14.651,14.651,0,0,1-6.063,1,15.155,15.155,0,0,1-.706-2.617q-1.787,2.616-6.478,2.617a7.251,7.251,0,0,1-4.755-1.62,5.392,5.392,0,0,1-1.973-4.4A5.493,5.493,0,0,1,242,71.451a8.208,8.208,0,0,1,5.5-1.6h4.527V67.859q0-3.238-3.447-3.239a7.487,7.487,0,0,0-2.118.25,7.974,7.974,0,0,1-.5,2.7H241.9A8.565,8.565,0,0,1,241.189,63.831Zm7.476,13.787a4.546,4.546,0,0,0,3.364-1.247V72.967h-2.907q-2.99,0-2.99,2.285a2.343,2.343,0,0,0,.644,1.7A2.515,2.515,0,0,0,248.665,77.619Z" transform="translate(-179.271 -51.497)" fill="#403b44"/>
      <path id="Path_9" data-name="Path 9" d="M274.821,86.487q.747,0,1.6-1.391a9.357,9.357,0,0,0,1.184-3.3l-6.811-16.112a5.65,5.65,0,0,1-2.741-1.579l.415-3.2h9.552l.415,3.2a4.641,4.641,0,0,1-1.827,1.205l2.284,6.27a18.64,18.64,0,0,1,1.038,3.862l.125.581h.581a23.773,23.773,0,0,1,1.163-4.361l2.2-6.146a4.7,4.7,0,0,1-2.159-1.412l.415-3.2h9.136l.415,3.2a5.71,5.71,0,0,1-2.741,1.62l-6.852,16.2a31.613,31.613,0,0,1-2.99,5.939,5.988,5.988,0,0,1-5.087,2.45,6.722,6.722,0,0,1-4.963-1.7q-.042-.415-.042-.83a10.029,10.029,0,0,1,.955-4.32h3.447a6.9,6.9,0,0,1,.706,3.032Z" transform="translate(-187.861 -51.644)" fill="#403b44"/>
      <path id="Path_10" data-name="Path 10" d="M304.291,52.121q0-3.155,3.53-3.155t3.53,3.155a9.977,9.977,0,0,1-1.412,5.17,12.113,12.113,0,0,1-3.405,3.8l-1.744-1.079a8.686,8.686,0,0,0,1.37-4.486,4.4,4.4,0,0,0-.042-.622,2.454,2.454,0,0,1-1.308-1.018A3.071,3.071,0,0,1,304.291,52.121Z" transform="translate(-199.017 -47.969)" fill="#403b44"/>
      <path id="Path_11" data-name="Path 11" d="M321.568,64.163q-2.741,0-2.741,1.62,0,1.538,2.866,2.284l3.281.873q5.065,1.329,5.066,5.856a6.546,6.546,0,0,1-2.18,5.087q-2.181,1.974-6.936,1.973a16.854,16.854,0,0,1-7.413-1.33q-.042-.457-.041-.913a9.071,9.071,0,0,1,.913-4.112h3.448a6.386,6.386,0,0,1,.705,2.076,8.672,8.672,0,0,0,2.367.249q3.655,0,3.655-2.076a1.4,1.4,0,0,0-.5-1.1,5.5,5.5,0,0,0-1.953-.852l-3.281-.955a8.9,8.9,0,0,1-3.945-2.1,5.522,5.522,0,0,1-1.412-4.111,5.449,5.449,0,0,1,2.2-4.465,9.931,9.931,0,0,1,6.292-1.744,17.646,17.646,0,0,1,6.915,1.2c.027.277.041.554.041.831a8.793,8.793,0,0,1-.913,3.987H324.6a5.906,5.906,0,0,1-.707-1.993A9.591,9.591,0,0,0,321.568,64.163Z" transform="translate(-201.843 -51.497)" fill="#403b44"/>
      <path id="Path_12" data-name="Path 12" d="M353.424,48.066a19.181,19.181,0,0,1,4.319-.541q1.993,0,3.364.125V58.032a9.244,9.244,0,0,1,2.658-1.121,11.277,11.277,0,0,1,2.949-.457q4.111,0,5.689,1.993t1.578,6.062v8.43a5.6,5.6,0,0,1,2.284,1.412l-.415,3.2H366.3l-.415-3.2a4.911,4.911,0,0,1,2.284-1.412V64.718a4.509,4.509,0,0,0-.727-3.01,3.569,3.569,0,0,0-2.637-.769,6.123,6.123,0,0,0-3.7,1.329V72.941a5.6,5.6,0,0,1,2.284,1.412l-.415,3.2h-9.552l-.415-3.2a4.9,4.9,0,0,1,2.284-1.412V52.675a5.366,5.366,0,0,1-2.284-1.412Z" transform="translate(-214.015 -47.525)" fill="#403b44"/>
      <path id="Path_13" data-name="Path 13" d="M398.3,81.855q-4.922,0-7.289-2.617t-2.366-7.911q0-5.295,2.636-8.1t7.579-2.8q4.942,0,7.33,2.491t2.388,7.787q0,5.295-2.679,8.223T398.3,81.855Zm-3.676-10.881q0,6.645,3.987,6.645a3.33,3.33,0,0,0,3.011-1.516,9.523,9.523,0,0,0,.976-4.963q0-6.478-4.07-6.478a3.3,3.3,0,0,0-2.949,1.432Q394.628,67.527,394.628,70.974Z" transform="translate(-224.987 -51.497)" fill="#403b44"/>
      <path id="Path_14" data-name="Path 14" d="M420.2,48.066a19.17,19.17,0,0,1,4.318-.541q1.993,0,3.364.125V72.941a5.6,5.6,0,0,1,2.284,1.412l-.415,3.2H420.2l-.416-3.2a4.908,4.908,0,0,1,2.284-1.412V52.675a5.37,5.37,0,0,1-2.284-1.412Z" transform="translate(-234.574 -47.525)" fill="#403b44"/>
      <path id="Path_15" data-name="Path 15" d="M437.783,56.841A19.2,19.2,0,0,1,442.1,56.3q1.994,0,3.364.125V73a5.589,5.589,0,0,1,2.284,1.412l-.415,3.2h-9.552l-.416-3.2A4.911,4.911,0,0,1,439.652,73V61.451a5.348,5.348,0,0,1-2.285-1.412Zm4.713-2.865q-3.467,0-3.467-3.136t3.467-3.135q3.468,0,3.468,3.135T442.5,53.977Z" transform="translate(-239.986 -47.58)" fill="#403b44"/>
      <path id="Path_16" data-name="Path 16" d="M465.564,48.066a20.368,20.368,0,0,1,4.527-.541q2.158,0,3.7.125V72.567a8.467,8.467,0,0,1,2.284.707v3.28a13.322,13.322,0,0,1-6.312,1.33,2.371,2.371,0,0,1-.81-.748,2.066,2.066,0,0,1-.436-1.038,7.937,7.937,0,0,1-2.367,1.267,8.5,8.5,0,0,1-2.865.519q-4.485,0-6.5-2.43T454.767,67.5q0-6.271,3.073-8.8a10.054,10.054,0,0,1,6.645-2.242,15.051,15.051,0,0,1,3.488.415V52.758a6.162,6.162,0,0,1-2.824-1.5Zm-1.412,25.582a5.25,5.25,0,0,0,3.821-1.412V61.106a15.21,15.21,0,0,0-3.613-.415,2.877,2.877,0,0,0-2.762,1.682,11.522,11.522,0,0,0-.851,5.024,10.2,10.2,0,0,0,.831,4.8A2.762,2.762,0,0,0,464.152,73.647Z" transform="translate(-245.342 -47.525)" fill="#403b44"/>
      <path id="Path_17" data-name="Path 17" d="M488.805,63.831q0-.624.042-1.329a17.27,17.27,0,0,1,8.306-2.076q4.444,0,6.375,1.681t1.931,5.586v8.846a9.35,9.35,0,0,1,2.284.707v3.612a14.651,14.651,0,0,1-6.063,1,15.211,15.211,0,0,1-.706-2.617q-1.786,2.616-6.478,2.617a7.253,7.253,0,0,1-4.755-1.62,5.394,5.394,0,0,1-1.973-4.4,5.491,5.491,0,0,1,1.848-4.382,8.207,8.207,0,0,1,5.5-1.6h4.527V67.859q0-3.238-3.447-3.239a7.49,7.49,0,0,0-2.118.25,7.938,7.938,0,0,1-.5,2.7h-4.07A8.564,8.564,0,0,1,488.805,63.831Zm7.475,13.787a4.546,4.546,0,0,0,3.364-1.247V72.967h-2.907q-2.99,0-2.99,2.285a2.343,2.343,0,0,0,.644,1.7A2.515,2.515,0,0,0,496.28,77.619Z" transform="translate(-255.502 -51.497)" fill="#403b44"/>
      <path id="Path_18" data-name="Path 18" d="M522.436,86.487q.747,0,1.6-1.391a9.342,9.342,0,0,0,1.184-3.3l-6.811-16.112a5.65,5.65,0,0,1-2.741-1.579l.416-3.2h9.551l.415,3.2a4.63,4.63,0,0,1-1.827,1.205l2.284,6.27a18.642,18.642,0,0,1,1.038,3.862l.125.581h.581a23.829,23.829,0,0,1,1.163-4.361l2.2-6.146a4.712,4.712,0,0,1-2.159-1.412l.416-3.2h9.136l.415,3.2a5.707,5.707,0,0,1-2.741,1.62l-6.852,16.2a31.615,31.615,0,0,1-2.99,5.939,5.988,5.988,0,0,1-5.087,2.45,6.723,6.723,0,0,1-4.963-1.7q-.042-.415-.041-.83a10.029,10.029,0,0,1,.955-4.32h3.446a6.9,6.9,0,0,1,.707,3.032Z" transform="translate(-264.091 -51.644)" fill="#403b44"/>
      <path id="Path_19" data-name="Path 19" d="M559.285,64.163q-2.741,0-2.741,1.62,0,1.538,2.865,2.284l3.281.873q5.065,1.329,5.066,5.856a6.546,6.546,0,0,1-2.18,5.087q-2.181,1.974-6.936,1.973a16.854,16.854,0,0,1-7.413-1.33q-.042-.457-.041-.913A9.072,9.072,0,0,1,552.1,75.5h3.447a6.37,6.37,0,0,1,.706,2.076,8.67,8.67,0,0,0,2.367.249q3.653,0,3.654-2.076a1.4,1.4,0,0,0-.5-1.1,5.486,5.486,0,0,0-1.952-.852l-3.281-.955a8.9,8.9,0,0,1-3.945-2.1,5.522,5.522,0,0,1-1.412-4.111,5.449,5.449,0,0,1,2.2-4.465,9.93,9.93,0,0,1,6.292-1.744,17.64,17.64,0,0,1,6.915,1.2c.027.277.041.554.041.831a8.793,8.793,0,0,1-.913,3.987h-3.405a5.89,5.89,0,0,1-.707-1.993A9.591,9.591,0,0,0,559.285,64.163Z" transform="translate(-275.026 -51.497)" fill="#403b44"/>
    </g>
  </g>
</svg>
