<svg xmlns="http://www.w3.org/2000/svg" width="455.943" height="419" viewBox="0 0 455.943 419">
  <g id="Group_11" data-name="Group 11" transform="translate(-793.5 -130)">
    <circle id="Ellipse_7" data-name="Ellipse 7" cx="209.5" cy="209.5" r="209.5" transform="translate(801 130)" fill="rgba(255,255,255,0.51)" opacity="0.394"/>
    <g id="Group_6" data-name="Group 6" transform="translate(793.5 132)">
      <path id="Path_21" data-name="Path 21" d="M349.8,352.959a20.85,20.85,0,0,1-3.211.075.7.7,0,0,0-.771.608L343.77,369a6.237,6.237,0,0,1-1.321,3.043,6.633,6.633,0,0,0-1.493,5.069v26.1s-.132,3.479,2.541,3.479a38.648,38.648,0,0,0,9.637,0s2.141-.405,2.141-3.616V377.38a6.285,6.285,0,0,0-1.321-5.109,6.4,6.4,0,0,1-1.282-3.026l-2.127-15.684a.7.7,0,0,0-.744-.6Z" transform="translate(-274.175 -214.541)" fill="#fff"/>
      <path id="Path_22" data-name="Path 22" d="M348.039,407.165a39,39,0,0,1-4.839-.3,2.6,2.6,0,0,1-1.927-.789,4.811,4.811,0,0,1-1.024-3.147V376.876a7.1,7.1,0,0,1,1.6-5.379,5.793,5.793,0,0,0,1.223-2.823l2.048-15.359a1.147,1.147,0,0,1,1.255-.987,20.328,20.328,0,0,0,3.119-.075h.012a1.141,1.141,0,0,1,1.213.983l2.127,15.685a5.961,5.961,0,0,0,1.193,2.814,6.708,6.708,0,0,1,1.414,5.418v25.656c0,3.535-2.474,4.044-2.5,4.049A39.283,39.283,0,0,1,348.039,407.165ZM346.262,353.2a.264.264,0,0,0-.274.225l-2.048,15.365a6.681,6.681,0,0,1-1.415,3.262,6.218,6.218,0,0,0-1.4,4.739l0,.054v26.1a4,4,0,0,0,.78,2.522,1.737,1.737,0,0,0,1.321.518l.055,0a38.253,38.253,0,0,0,9.527,0c.042-.01,1.755-.4,1.755-3.179l.007-25.774a5.835,5.835,0,0,0-1.229-4.751,6.854,6.854,0,0,1-1.377-3.243l-2.128-15.687a.261.261,0,0,0-.272-.223,21.383,21.383,0,0,1-3.271.076l-.036,0Z" transform="translate(-273.909 -214.273)" fill="#6a6a6a"/>
      <path id="Path_23" data-name="Path 23" d="M113.37,261.989h3.246a4.867,4.867,0,0,1,4.867,4.867v12.213a4.867,4.867,0,0,1-4.867,4.867H113.37a4.867,4.867,0,0,1-4.867-4.867V266.856a4.867,4.867,0,0,1,4.867-4.867Z" transform="translate(-40.979 -98.946)" fill="#ffc107"/>
      <path id="Path_24" data-name="Path 24" d="M20.431,597.665H31.014l5.035-40.819H20.429Z" transform="translate(-7.716 -210.306)" fill="#9f616a"/>
      <path id="Path_25" data-name="Path 25" d="M249.773,747.424h20.842A13.282,13.282,0,0,1,283.9,760.7v.432H249.774Z" transform="translate(-239.757 -363.521)" fill="#403b44"/>
      <path id="Path_26" data-name="Path 26" d="M242.587,518.7S238,523.886,245.6,544.1l-1.338,110.813,24.611-.48,5.41-54.054,9.85-78.88Z" transform="translate(-236.525 -277.138)" fill="#403b44"/>
      <path id="Path_27" data-name="Path 27" d="M289.723,462.735l-.269-.041c-31.485-4.8-55.243-9.405-55.48-9.451l-.3-.057,8.253-20.074c-.065-2.1-1.852-61,1.568-77.926,3.311-16.383,18.917-19.068,20.7-19.321l1.786-5.917,22.56,11.739,3.935,13.542.8,37.115Z" transform="translate(-233.679 -205.851)" fill="#4a444e"/>
      <path id="Path_28" data-name="Path 28" d="M310.844,420.57a7.363,7.363,0,0,0-5.41,2.367H267.516l-13.89,2.957,2.281,17.589,49.41-10.626a7.388,7.388,0,1,0,5.528-12.285Z" transform="translate(-241.212 -240.077)" fill="#9f616a"/>
      <circle id="Ellipse_1" data-name="Ellipse 1" cx="18.275" cy="18.275" r="18.275" transform="translate(29.123 115.952) rotate(-61.337)" fill="#9f616a"/>
      <path id="Path_29" data-name="Path 29" d="M289.948,275.54l-.886-1.783,4.458-2.215s4.918-8,13.817-5.753,12.9,3.595,12.9,3.595l4.447,2.237-2.232,2.221,4,1.346-2.675,1.329,3.112,1.789-1.675,9.17s-2.783-6.955-8.132-4.3-15.135-1.374-15.135-1.374l-8.5,16.453s-1.754-5.767-4.881-4.23C288.572,294.027,280.583,281.3,289.948,275.54Z" transform="translate(-253.211 -181.469)" fill="#403b44"/>
      <path id="Path_30" data-name="Path 30" d="M254.412,417.713l-4.337-12.9-1.049-43,1.848-6.1a17.045,17.045,0,1,1,32.191,11.137l-9.9,25.378.5.977,21.456-.174,7.621,13.719Z" transform="translate(-239.475 -211.011)" fill="#4e4852"/>
      <path id="Path_31" data-name="Path 31" d="M596.325,435.342a6.6,6.6,0,0,0,1.055-10.071l10.576-20.949-12.114,1.405-8.186,19.678a6.639,6.639,0,0,0,8.669,9.937Z" transform="translate(-366.719 -233.94)" fill="#ffb7b7"/>
      <path id="Path_32" data-name="Path 32" d="M496.7,539.764h-9.532L482.638,503h14.067Z" transform="translate(-182.28 -189.97)" fill="#ffb7b7"/>
      <path id="Path_33" data-name="Path 33" d="M724.173,699.964H693.44v-.389A11.963,11.963,0,0,1,705.4,687.612h18.772Z" transform="translate(-407.319 -340.931)" fill="#403b44"/>
      <path id="Path_34" data-name="Path 34" d="M413,539.764h-9.532L398.938,503h14.068Z" transform="translate(-150.668 -189.97)" fill="#ffb7b7"/>
      <path id="Path_35" data-name="Path 35" d="M636.726,699.964H605.993v-.389a11.963,11.963,0,0,1,11.961-11.962h18.772Z" transform="translate(-374.292 -340.931)" fill="#403b44"/>
      <path id="Path_36" data-name="Path 36" d="M409.953,312.572l-9.329,21.493-7.7,123.535,19.436-.777,5.308-58.89,16.375-52.451,9.414,58.474,3.888,51.311,16.082.7,6.409-143.392Z" transform="translate(-148.399 -118.05)" fill="#403b44"/>
      <path id="Path_37" data-name="Path 37" d="M696.318,272.694l-27.039.676L653.4,281.52l-.871,60.125-9.9,41.512s61.862,4.258,70.413-1.962l-10.107-47.424,13.555-51.252Z" transform="translate(-388.13 -184.228)" fill="#9363ff"/>
      <path id="Path_38" data-name="Path 38" d="M638.237,287.446l-2.517-1.7s-10.428,3.126-13.511,17.031c0,0-2.359,6.976-3.394,11.773-1.187,5.5-27.4,56.035-27.4,56.035l15.693,4.5,28.771-46.529Z" transform="translate(-368.787 -189.157)" fill="#9363ff"/>
      <path id="Path_39" data-name="Path 39" d="M759.045,446.515a6.6,6.6,0,0,1,1.763-9.971l-4.389-23.053,11.256,4.691,2.442,21.172a6.639,6.639,0,0,1-11.073,7.161Z" transform="translate(-431.104 -237.403)" fill="#ffb7b7"/>
      <path id="Path_40" data-name="Path 40" d="M750.252,289.065l2.888-.94s9.162,5.88,8.29,20.1c0,0,.343,7.356.016,12.252-.376,5.616,4.665,61.418,4.665,61.418H749.784l-7-50.534Z" transform="translate(-425.956 -190.056)" fill="#9363ff"/>
      <path id="Path_41" data-name="Path 41" d="M716.814,220.785a18.744,18.744,0,1,1-18.744-18.744h0a18.7,18.7,0,0,1,18.744,18.651Q716.814,220.738,716.814,220.785Z" transform="translate(-401.988 -157.544)" fill="#ffb7b7"/>
      <path id="Path_42" data-name="Path 42" d="M678.938,188.621c2.2-4.722,6.445-3.788,10.161-2.188,4.706-1.044,9.182-4.169,14.252-2.321,4.995,7.264,21.764,5.127,18.2,16.954,0,2.834,5.333,1.184,4.4,5.826,2.827,8.932-10.205,25.848-17.687,22.286,1.85-3.391,6.077-11.094-.334-11.858-13.791,12.832-1.423-24.435-18.751-13.6C683.439,208.973,675.584,193.873,678.938,188.621Z" transform="translate(-401.538 -150.556)" fill="#403b44"/>
      <path id="Path_43" data-name="Path 43" d="M762.835,433.926a6.229,6.229,0,0,0,7.455-5.971l47.065-44.3-10.59-8.447-43.013,46.312a6.263,6.263,0,0,0-.917,12.4Z" transform="translate(-431.613 -222.945)" fill="#9f616a"/>
      <path id="Path_44" data-name="Path 44" d="M836.839,385.594l-9.156-10.731a2.793,2.793,0,0,1,.642-4.18l11.921-7.462a7.757,7.757,0,0,1,10.035,11.831l-9.213,10.566a2.793,2.793,0,0,1-4.229-.023Z" transform="translate(-457.766 -217.722)" fill="#cbcbcb"/>
      <path id="Path_45" data-name="Path 45" d="M559.252,594.061H547.745l-5.475-44.385h16.984Z" transform="translate(-204.801 -207.598)" fill="#9f616a"/>
      <path id="Path_46" data-name="Path 46" d="M785.434,760.411h-37.1v-.469A14.442,14.442,0,0,1,762.771,745.5h22.664Z" transform="translate(-428.049 -362.793)" fill="#403b44"/>
      <path id="Path_47" data-name="Path 47" d="M707.059,594.061H695.553l-5.475-44.385h16.984Z" transform="translate(-260.624 -207.598)" fill="#9f616a"/>
      <path id="Path_48" data-name="Path 48" d="M933.242,760.411h-37.1v-.469A14.443,14.443,0,0,1,910.579,745.5h22.664Z" transform="translate(-483.872 -362.793)" fill="#403b44"/>
      <path id="Path_49" data-name="Path 49" d="M842.7,406.955,854.3,364.1l-15.048-8.458h-21l-8.169,8.74s-13.649,9.5-10.345,20.018l5.329,23.965-8.151,38.062L755.839,503.38l-9.721,55.942,38.268,10.032,41.381-81.481,20.064,90.222,37.326-1.877L870.294,466.823s-3.667-33.325-22.885-54.133Z" transform="translate(-427.214 -215.555)" fill="#403b44"/>
      <path id="Path_50" data-name="Path 50" d="M926.013,456.4a6.229,6.229,0,0,0-.8-9.518l-9-60.717L903.3,390.246l12.931,58.477a6.263,6.263,0,0,0,9.785,7.679Z" transform="translate(-486.576 -227.083)" fill="#9f616a"/>
      <path id="Path_51" data-name="Path 51" d="M917.235,386.957l-14.013,1.616a2.793,2.793,0,0,1-3.111-2.865l.454-14.056a7.757,7.757,0,0,1,15.417-1.732l3.632,13.539a2.793,2.793,0,0,1-2.378,3.5Z" transform="translate(-485.372 -218.345)" fill="#cbcbcb"/>
      <path id="Path_52" data-name="Path 52" d="M841.146,310.416V292.36a24.2,24.2,0,1,1,48.392,0v18.057a3.254,3.254,0,0,1-3.25,3.25H844.4A3.254,3.254,0,0,1,841.146,310.416Z" transform="translate(-463.103 -182.517)" fill="#403b44"/>
      <circle id="Ellipse_2" data-name="Ellipse 2" cx="17.74" cy="17.74" r="17.74" transform="translate(373.19 105.933) rotate(-28.663)" fill="#9f616a"/>
      <path id="Path_53" data-name="Path 53" d="M831.948,297.749a19.162,19.162,0,0,1,19.14-19.14H854.7a19.162,19.162,0,0,1,19.14,19.14v.361h-7.632l-2.6-7.289-.521,7.289H859.14l-1.313-3.678-.263,3.678H831.948Z" transform="translate(-459.629 -186.461)" fill="#403b44"/>
      <path id="Path_54" data-name="Path 54" d="M868.851,324.5a3.2,3.2,0,0,1-.254-3.4c3.827-7.279,9.185-20.729,2.073-29.024l-.511-.6h20.648v31l-18.757,3.309a3.319,3.319,0,0,1-.575.051,3.237,3.237,0,0,1-2.623-1.34Z" transform="translate(-473.33 -191.324)" fill="#403b44"/>
      <path id="Path_55" data-name="Path 55" d="M534.005,366.742a7.148,7.148,0,0,0-.718.866l-33.643-.823-3.925-7.172-11.6,4.508,5.714,13.371a5.428,5.428,0,0,0,5.643,3.256l38.01-4.592a7.123,7.123,0,1,0,.516-9.415Z" transform="translate(-328.265 -217.054)" fill="#ffb7b7"/>
      <path id="Path_56" data-name="Path 56" d="M154.373,542.942h11.062l5.262-42.667H154.371Z" transform="translate(-58.302 -188.941)" fill="#ffb7b7"/>
      <path id="Path_57" data-name="Path 57" d="M383.519,693.572H405.3a13.884,13.884,0,0,1,13.883,13.882v.452H383.519Z" transform="translate(-290.269 -343.182)" fill="#403b44"/>
      <path id="Path_58" data-name="Path 58" d="M305.605,540.737l10.173-4.346-11.922-41.305L288.843,501.5Z" transform="translate(-109.088 -186.981)" fill="#ffb7b7"/>
      <path id="Path_59" data-name="Path 59" d="M543.007,689.551l20.033-8.558h0a13.884,13.884,0,0,1,18.221,7.313l.177.415-32.8,14.013Z" transform="translate(-350.504 -338.008)" fill="#403b44"/>
      <path id="Path_60" data-name="Path 60" d="M212.221,254.41l.8,12.962-23.381,2.5-24.466,2.618,7.2-19.683Z" transform="translate(-62.382 -95.48)" fill="#ffb7b7"/>
      <path id="Path_61" data-name="Path 61" d="M446.413,353.13c-.265-.1-26.675-10.377-42.9-1.977l-.4.207-3.236-15.929-1.844-34.246,12-5.67,3.3-7.4,22.5-1.332,4.624,6.342,15.744,5.16-9.41,55Z" transform="translate(-295.753 -189.548)" fill="#eaeaea"/>
      <path id="Path_62" data-name="Path 62" d="M477.1,329.28l2.783-21.87,6.338-1.929.107.039c.146.054,3.591,1.372,4.533,6.141.905,4.577,7.721,33.06,7.79,33.347l.068.285L482.705,351.7Z" transform="translate(-325.613 -196.61)" fill="#eaeaea"/>
      <path id="Path_63" data-name="Path 63" d="M477.945,578.016l21.318-4.373-34.072-94.016L453.53,447.559s-7.4-25.712-10.737-35.662l-2.017-13.351-47.737,5.284s-13.333,19.58-9.282,51.5l-1.832,119.956,21.318,1.093L421.1,455.394l31.339,66.321s9.878,28.3,16.945,34.436Z" transform="translate(-289.667 -231.759)" fill="#403b44"/>
      <path id="Path_64" data-name="Path 64" d="M407.251,390.912a7.137,7.137,0,0,0-1.123.062l-22.27-25.23,2.591-7.754-11.191-5.439-5.92,13.282a5.429,5.429,0,0,0,1.449,6.352L400,396.935a7.123,7.123,0,1,0,7.255-6.023Z" transform="translate(-284.735 -214.387)" fill="#ffb7b7"/>
      <path id="Path_65" data-name="Path 65" d="M375.9,340.183l8.706-24.8c.978-2.923,2.2-4.7,3.644-5.279a2.248,2.248,0,0,1,1.807-.017l3.9,4.932,3.623,15.221-9.29,21.852Z" transform="translate(-287.39 -198.282)" fill="#eaeaea"/>
      <path id="Path_66" data-name="Path 66" d="M443.5,253.341H405.28a2.969,2.969,0,0,1-2.965-2.965V233.9a22.076,22.076,0,0,1,44.152,0v16.474a2.969,2.969,0,0,1-2.965,2.965Z" transform="translate(-297.368 -161.239)" fill="#403b44"/>
      <circle id="Ellipse_3" data-name="Ellipse 3" cx="16.185" cy="16.185" r="16.185" transform="translate(115.374 59.348)" fill="#ffb7b7"/>
      <path id="Path_67" data-name="Path 67" d="M458.458,239.148H435.087l-.24-3.355-1.2,3.355h-3.6l-.475-6.65-2.375,6.65h-6.963v-.329A17.483,17.483,0,0,1,437.7,221.356h3.3a17.483,17.483,0,0,1,17.463,17.463Z" transform="translate(-304.137 -164.838)" fill="#403b44"/>
      <path id="Path_68" data-name="Path 68" d="M433.087,264.453a3.032,3.032,0,0,1-.525-.046l-17.113-3.019V233.1h18.839l-.466.544c-6.489,7.568-1.6,19.84,1.891,26.481a2.922,2.922,0,0,1-.232,3.1A2.953,2.953,0,0,1,433.087,264.453Z" transform="translate(-302.329 -169.275)" fill="#403b44"/>
      <path id="Path_69" data-name="Path 69" d="M767.8,392.719a20.85,20.85,0,0,1-3.211.075.7.7,0,0,0-.771.608l-2.048,15.362a6.237,6.237,0,0,1-1.321,3.043,6.633,6.633,0,0,0-1.493,5.069v26.1s-.132,3.479,2.541,3.479a38.649,38.649,0,0,0,9.637,0s2.141-.405,2.141-3.616V417.141a6.285,6.285,0,0,0-1.321-5.109,6.4,6.4,0,0,1-1.282-3.026l-2.127-15.684a.7.7,0,0,0-.744-.6Z" transform="translate(-432.043 -229.557)" fill="#fff"/>
      <path id="Path_70" data-name="Path 70" d="M766.039,446.926a39.006,39.006,0,0,1-4.839-.3,2.6,2.6,0,0,1-1.927-.789,4.811,4.811,0,0,1-1.024-3.147V416.636a7.1,7.1,0,0,1,1.6-5.378,5.793,5.793,0,0,0,1.223-2.823l2.048-15.359a1.147,1.147,0,0,1,1.255-.987,20.324,20.324,0,0,0,3.119-.075h.012a1.14,1.14,0,0,1,1.212.983l2.127,15.685a5.961,5.961,0,0,0,1.193,2.814,6.708,6.708,0,0,1,1.414,5.419v25.656c0,3.535-2.474,4.044-2.5,4.049a39.3,39.3,0,0,1-4.91.308Zm-1.777-53.961a.264.264,0,0,0-.274.225l-2.048,15.365a6.68,6.68,0,0,1-1.415,3.262,6.218,6.218,0,0,0-1.4,4.739l0,.054v26.1a4,4,0,0,0,.78,2.522,1.737,1.737,0,0,0,1.321.518l.055,0a38.252,38.252,0,0,0,9.527,0c.042-.01,1.755-.4,1.755-3.179l.007-25.774a5.835,5.835,0,0,0-1.229-4.751,6.854,6.854,0,0,1-1.377-3.243l-2.128-15.687a.261.261,0,0,0-.271-.223,21.384,21.384,0,0,1-3.271.076Z" transform="translate(-431.776 -229.29)" fill="#6a6a6a"/>
      <path id="Path_71" data-name="Path 71" d="M531.37,301.749h3.246a4.867,4.867,0,0,1,4.867,4.867v12.213a4.867,4.867,0,0,1-4.867,4.867H531.37a4.867,4.867,0,0,1-4.867-4.867V306.616a4.867,4.867,0,0,1,4.867-4.867Z" transform="translate(-198.847 -113.963)" fill="#9363ff"/>
      <path id="Path_72" data-name="Path 72" d="M590.8,358.719a20.857,20.857,0,0,1-3.211.075.7.7,0,0,0-.771.608l-2.048,15.362a6.236,6.236,0,0,1-1.321,3.043,6.633,6.633,0,0,0-1.493,5.069v26.1s-.132,3.479,2.541,3.479a38.649,38.649,0,0,0,9.637,0s2.14-.405,2.14-3.616V383.141a6.285,6.285,0,0,0-1.321-5.109,6.4,6.4,0,0,1-1.282-3.026l-2.127-15.684A.7.7,0,0,0,590.8,358.719Z" transform="translate(-365.195 -216.716)" fill="#fff"/>
      <path id="Path_73" data-name="Path 73" d="M589.039,412.926a39.011,39.011,0,0,1-4.839-.3,2.6,2.6,0,0,1-1.927-.789,4.811,4.811,0,0,1-1.024-3.147V382.636a7.1,7.1,0,0,1,1.6-5.379,5.794,5.794,0,0,0,1.223-2.823l2.048-15.359a1.147,1.147,0,0,1,1.255-.987,20.331,20.331,0,0,0,3.119-.075h.012a1.141,1.141,0,0,1,1.213.983l2.127,15.685a5.96,5.96,0,0,0,1.193,2.814,6.708,6.708,0,0,1,1.414,5.419v25.656c0,3.535-2.474,4.044-2.5,4.049a39.283,39.283,0,0,1-4.91.308Zm-1.777-53.961a.264.264,0,0,0-.274.225l-2.048,15.365a6.682,6.682,0,0,1-1.415,3.262,6.218,6.218,0,0,0-1.4,4.739l0,.054v26.1a3.994,3.994,0,0,0,.78,2.521,1.737,1.737,0,0,0,1.321.518l.055,0a38.253,38.253,0,0,0,9.527,0c.042-.01,1.755-.4,1.755-3.179l.007-25.774a5.835,5.835,0,0,0-1.229-4.751,6.854,6.854,0,0,1-1.377-3.243l-2.128-15.687a.261.261,0,0,0-.271-.223,21.388,21.388,0,0,1-3.271.076Z" transform="translate(-364.928 -216.449)" fill="#818181"/>
      <path id="Path_74" data-name="Path 74" d="M354.37,267.749h3.246a4.867,4.867,0,0,1,4.867,4.867v12.213a4.867,4.867,0,0,1-4.867,4.867H354.37a4.867,4.867,0,0,1-4.867-4.867V272.616A4.867,4.867,0,0,1,354.37,267.749Z" transform="translate(-131.998 -101.122)" fill="#ffc107"/>
      <path id="Path_75" data-name="Path 75" d="M560.8,322.719a20.846,20.846,0,0,1-3.211.075.7.7,0,0,0-.771.608l-2.048,15.362a6.236,6.236,0,0,1-1.321,3.043,6.633,6.633,0,0,0-1.493,5.069v26.1s-.132,3.479,2.541,3.479a38.648,38.648,0,0,0,9.637,0s2.141-.405,2.141-3.616V347.141a6.285,6.285,0,0,0-1.321-5.109,6.4,6.4,0,0,1-1.282-3.026l-2.127-15.684A.7.7,0,0,0,560.8,322.719Z" transform="translate(-353.864 -203.12)" fill="#fff"/>
      <path id="Path_76" data-name="Path 76" d="M559.039,376.926a39.014,39.014,0,0,1-4.839-.3,2.6,2.6,0,0,1-1.927-.789,4.811,4.811,0,0,1-1.024-3.147V346.636a7.1,7.1,0,0,1,1.6-5.379,5.793,5.793,0,0,0,1.223-2.823l2.048-15.359a1.147,1.147,0,0,1,1.255-.987,20.32,20.32,0,0,0,3.119-.075h.012a1.141,1.141,0,0,1,1.213.983l2.127,15.685a5.96,5.96,0,0,0,1.193,2.814,6.709,6.709,0,0,1,1.414,5.419v25.656c0,3.535-2.474,4.044-2.5,4.049a39.289,39.289,0,0,1-4.91.308Zm-1.777-53.961a.264.264,0,0,0-.274.225l-2.048,15.365a6.681,6.681,0,0,1-1.415,3.262,6.218,6.218,0,0,0-1.4,4.739l0,.054v26.1a4,4,0,0,0,.78,2.522,1.737,1.737,0,0,0,1.321.518l.055,0a38.252,38.252,0,0,0,9.527,0c.042-.01,1.755-.4,1.755-3.179l.007-25.774a5.835,5.835,0,0,0-1.229-4.751,6.853,6.853,0,0,1-1.377-3.243l-2.128-15.687a.261.261,0,0,0-.271-.223,21.384,21.384,0,0,1-3.271.076Z" transform="translate(-353.598 -202.853)" fill="#6a6a6a"/>
      <path id="Path_77" data-name="Path 77" d="M324.37,231.749h3.246a4.867,4.867,0,0,1,4.867,4.867v12.213a4.867,4.867,0,0,1-4.867,4.867H324.37a4.867,4.867,0,0,1-4.867-4.867V236.616A4.867,4.867,0,0,1,324.37,231.749Z" transform="translate(-120.668 -87.526)" fill="#9363ff"/>
      <circle id="Ellipse_4" data-name="Ellipse 4" cx="15.558" cy="15.558" r="15.558" transform="translate(8.409 26.069)" fill="rgba(64,59,68,0.09)"/>
      <circle id="Ellipse_5" data-name="Ellipse 5" cx="15.558" cy="15.558" r="15.558" transform="translate(398.652 1.867)" fill="rgba(64,59,68,0.12)"/>
      <circle id="Ellipse_6" data-name="Ellipse 6" cx="11.202" cy="11.202" r="11.202" transform="translate(204.24 47.919)" fill="rgba(64,59,68,0.08)"/>
    </g>
  </g>
</svg>
